<?xml version="1.0" encoding="utf-8"?>
<!-- Generator: Adobe Illustrator 25.4.1, SVG Export Plug-In . SVG Version: 6.00 Build 0)  -->
<svg version="1.1" id="Livello_1" xmlns="http://www.w3.org/2000/svg" xmlns:xlink="http://www.w3.org/1999/xlink" x="0px" y="0px"
	 viewBox="0 0 564.44 96.42" style="enable-background:new 0 0 564.44 96.42;" xml:space="preserve">
<style type="text/css">
	.st0{fill:#595959;}
	.st1{fill:#E42618;}
	.st2{fill:#AB263C;}
	.st3{fill:none;stroke:#595959;stroke-width:1.295;stroke-linecap:round;stroke-linejoin:round;stroke-miterlimit:10;}
	.st4{fill:none;stroke:#595959;stroke-linecap:round;stroke-linejoin:round;stroke-miterlimit:10;}
</style>
<g>
	<path class="st0" d="M392.03,55.99c0,1.07,0.17,1.75,1.06,1.98c0.63,0.15,1.32,0.19,1.32,0.72c0,0.19-0.13,0.34-0.73,0.34
		c-0.3,0-0.46-0.15-2.75-0.15c-2.29,0-2.42,0.15-2.75,0.15c-0.4,0-0.63,0-0.63-0.42c0-0.46,0.59-0.49,1.19-0.65
		c0.99-0.27,1.09-0.46,1.09-1.79V37.33c0-1.03-0.27-1.26-0.93-1.37c-1.09-0.19-1.39-0.04-1.39-0.61c0-0.23,0.17-0.46,0.69-0.46
		c0.83,0,1.75,0.15,2.72,0.15c1.02,0,2.09-0.15,2.81-0.15c0.46,0,0.73,0.15,0.73,0.5c0,0.46-0.4,0.38-1.52,0.57
		c-0.7,0.11-0.93,0.65-0.93,1.37V55.99z"/>
	<path class="st0" d="M400.11,41.22c1.06,0,1.89,0.27,2.48,0.61c0.17,0.11,0.2,0.69,0.2,2.13c0,1.33,0,1.98-0.33,1.98
		c-0.33,0-0.33-0.57-0.83-2.02c-0.36-1.03-0.86-1.79-1.89-1.79c-1.42,0-2.48,1.14-2.48,2.63c0,3.7,6.39,3.81,6.39,9.14
		c0,3.43-1.95,5.44-4.93,5.44c-1.39,0-2.05-0.27-2.62-0.46c-0.33-0.12-0.46-0.46-0.46-3.09c0-1.94,0.1-2.25,0.36-2.25
		c0.33,0,0.26,0.38,0.79,2.21c0.46,1.56,1.23,2.67,2.45,2.67c1.56,0,2.55-1.26,2.55-3.05c0-4.87-6.19-3.88-6.19-9.6
		C395.61,42.47,397.99,41.22,400.11,41.22z"/>
	<path class="st0" d="M407.92,56.22c0,1.29,0.4,1.52,0.99,1.52c1.26,0,1.49-2.21,2.02-2.21c0.2,0,0.3,0.07,0.3,0.3
		c0,0.3-0.33,1.52-0.76,2.36c-0.46,0.91-1.19,1.14-2.09,1.14c-1.49,0-2.45-0.88-2.45-3.27v-12.8c0-0.61-0.56-0.61-1.06-0.61
		c-0.3,0-0.53,0-0.53-0.46c0-0.46,1.03-1.1,2.72-4.8c0.33-0.72,0.33-0.91,0.56-0.91c0.2,0,0.3,0.12,0.3,0.95v3.39
		c0,0.61,0.17,0.84,0.66,0.84h1.32c0.6,0,0.83,0.11,0.83,0.57c0,0.5-0.2,0.72-0.89,0.72h-1.49c-0.33,0-0.43,0.12-0.43,0.69V56.22z"
		/>
	<path class="st0" d="M413.62,45.21c0-0.88-0.23-1.14-1.39-1.41c-0.17-0.04-0.3-0.19-0.3-0.38c0-0.19,0.23-0.38,0.96-0.69
		c1.56-0.65,2.22-1.52,2.45-1.52c0.17,0,0.27,0.11,0.27,0.38v14.59c0,1.07,0,1.68,1.16,1.94c0.63,0.15,0.83,0.23,0.83,0.53
		c0,0.27-0.1,0.38-0.5,0.38c-0.43,0-0.79-0.15-2.52-0.15c-1.79,0-2.19,0.15-2.48,0.15c-0.23,0-0.4-0.15-0.4-0.42
		c0-0.23,0.13-0.42,0.56-0.49c1.19-0.23,1.36-0.42,1.36-1.75V45.21z M414.61,34.9c0.66,0,1.22,0.57,1.22,1.9
		c0,1.37-0.56,1.9-1.22,1.9c-0.63,0-1.23-0.53-1.23-1.9C413.38,35.47,413.98,34.9,414.61,34.9z"/>
	<path class="st0" d="M421.46,56.22c0,1.29,0.4,1.52,0.99,1.52c1.26,0,1.49-2.21,2.02-2.21c0.2,0,0.3,0.07,0.3,0.3
		c0,0.3-0.33,1.52-0.76,2.36c-0.47,0.91-1.19,1.14-2.09,1.14c-1.49,0-2.45-0.88-2.45-3.27v-12.8c0-0.61-0.56-0.61-1.06-0.61
		c-0.3,0-0.53,0-0.53-0.46c0-0.46,1.03-1.1,2.72-4.8c0.33-0.72,0.33-0.91,0.56-0.91c0.2,0,0.3,0.12,0.3,0.95v3.39
		c0,0.61,0.17,0.84,0.66,0.84h1.33c0.59,0,0.83,0.11,0.83,0.57c0,0.5-0.2,0.72-0.89,0.72h-1.49c-0.33,0-0.43,0.12-0.43,0.69V56.22z"
		/>
	<path class="st0" d="M428.75,54.47c0,2.06,1.13,3.2,2.72,3.2c1.69,0,3.44-1.52,3.44-3.43V43.92c0-0.88-0.1-1.22-0.93-1.33
		c-0.86-0.11-1.09-0.04-1.09-0.57c0-0.23,0.17-0.5,0.56-0.5h2.95c0.33,0,0.5,0.08,0.5,0.88v12.87c0,1.37,0.13,1.71,0.76,1.79
		c0.73,0.08,0.89,0.15,0.89,0.46c0,0.19-0.2,0.38-0.63,0.57c-1.52,0.69-2.48,1.26-2.62,1.26c-0.1,0-0.23-0.07-0.23-1.1
		c0-1.41-0.03-1.49-0.23-1.49c-0.53,0-1.72,2.36-4.31,2.36c-1.85,0-3.68-0.84-3.77-4.11V43.73c0-0.76-0.2-1.07-0.93-1.14
		c-0.66-0.08-0.86-0.19-0.86-0.53c0-0.27,0.2-0.53,0.69-0.53h2.55c0.5,0,0.53,0.15,0.53,1.49V54.47z"/>
	<path class="st0" d="M442.85,56.22c0,1.29,0.4,1.52,0.99,1.52c1.26,0,1.49-2.21,2.02-2.21c0.2,0,0.3,0.07,0.3,0.3
		c0,0.3-0.33,1.52-0.76,2.36c-0.46,0.91-1.19,1.14-2.09,1.14c-1.49,0-2.45-0.88-2.45-3.27v-12.8c0-0.61-0.56-0.61-1.06-0.61
		c-0.3,0-0.53,0-0.53-0.46c0-0.46,1.03-1.1,2.72-4.8c0.33-0.72,0.33-0.91,0.56-0.91c0.2,0,0.3,0.12,0.3,0.95v3.39
		c0,0.61,0.17,0.84,0.66,0.84h1.33c0.59,0,0.83,0.11,0.83,0.57c0,0.5-0.2,0.72-0.89,0.72h-1.49c-0.33,0-0.43,0.12-0.43,0.69V56.22z"
		/>
	<path class="st0" d="M455.83,50.28c0,3.81-1.13,8.15-3.54,8.15c-2.42,0-3.54-4.34-3.54-8.15c0-3.81,1.13-8.15,3.54-8.15
		C454.71,42.13,455.83,46.47,455.83,50.28z M458.02,50.28c0-4.84-2.28-9.06-5.73-9.06c-3.45,0-5.73,4.23-5.73,9.06
		c0,4.84,2.28,9.06,5.73,9.06C455.74,59.34,458.02,55.12,458.02,50.28z"/>
	<path class="st0" d="M478.91,58.62c0,1.07,0,1.11-0.36,1.11c-0.4,0-0.33-0.42-5.37-11.08c-4.47-9.48-4.44-10.09-4.77-10.09
		c-0.17,0-0.23,0.11-0.23,0.84v13.4c0,3.73,0.2,4.99,1.02,5.18c0.93,0.23,1.69,0.04,1.69,0.69c0,0.3-0.2,0.38-0.5,0.38
		c-0.4,0-0.46-0.15-2.32-0.15c-1.66,0-2.12,0.15-2.65,0.15c-0.26,0-0.36-0.15-0.36-0.38c0-0.46,1.06-0.53,1.42-0.69
		c0.63-0.27,0.76-1.07,0.76-2.21V38.06c0-1.33-0.13-1.98-0.76-2.09c-0.83-0.15-1.13-0.12-1.13-0.61c0-0.42,0.46-0.46,0.73-0.46
		c0.66,0,1.79,0.08,2.28,0.08l0.66,0.04c0.5,0.04,0.63,0.76,1.03,1.68l4.74,10.43c2.75,6.05,2.88,6.21,3.01,6.21
		c0.13,0,0.17-0.19,0.17-0.53V38.78c0-2.13-0.4-2.7-1.16-2.82c-0.66-0.12-1.13-0.23-1.13-0.61c0-0.27,0.2-0.46,0.43-0.46
		c0.36,0,0.83,0.15,2.32,0.15c0.73,0,1.39-0.15,2.02-0.15c0.43,0,0.53,0.12,0.53,0.46c0,0.46-0.33,0.46-1.12,0.61
		c-0.76,0.15-0.96,0.76-0.96,2.02V58.62z"/>
	<path class="st0" d="M488.12,54.05c0,1.07-0.26,1.64-0.99,2.4c-0.73,0.76-1.42,1.3-2.19,1.3c-0.93,0-1.65-0.72-1.65-2.25
		c0-2.21,1.56-3.96,3.74-5.67c0.53-0.42,0.63-0.46,0.83-0.46c0.2,0,0.26,0.12,0.26,0.5V54.05z M490.1,43.85
		c0-2.06-0.6-2.63-2.58-2.63c-1.59,0-3.34,0.65-4.67,2.02c-1.49,1.56-1.89,2.78-1.89,3.69c0,0.61,0.17,0.84,0.7,0.84
		c1.13,0,1.76-1.03,1.99-1.98c0.5-2.09,1.29-3.65,3.08-3.65c0.96,0,1.39,0.61,1.39,2.63v2.17c0,1.29-0.6,1.49-3.54,3.96
		c-2.55,2.13-3.48,3.24-3.48,5.1c0,2.21,1.06,3.35,2.42,3.35c2.81,0,4.01-2.78,4.54-2.78c0.5,0,0.17,2.63,2.12,2.63
		c1.92,0,2.65-2.32,2.65-3.08c0-0.42-0.1-0.53-0.26-0.53c-0.5,0-0.27,1.71-1.52,1.71c-0.6,0-0.93-0.76-0.93-1.37V43.85z"/>
	<path class="st0" d="M493.05,58.89c-0.16,0-0.26-0.12-0.26-0.35c0-0.34,0.17-0.46,0.66-1.45l6.32-12.95
		c0.43-0.88,0.56-1.07,0.56-1.26c0-0.15-0.13-0.3-1.13-0.3c-3.08,0-3.84,0.3-4.67,2.25c-0.6,1.37-0.56,1.71-0.89,1.71
		c-0.2,0-0.3-0.19-0.3-0.38c0-0.3,0.13-0.76,0.43-2.89c0.3-2.17,0.36-2.59,0.69-2.59c0.63,0,0.27,0.99,1.26,0.99h6.56
		c0.43,0,0.53,0.15,0.53,0.34c0,0.19-0.07,0.42-0.56,1.41l-6.82,13.82c-0.17,0.34-0.17,0.46-0.17,0.53c0,0.19,0,0.19,1.95,0.19
		c3.34,0,3.87-0.61,4.47-2.51c0.47-1.45,0.23-2.25,0.7-2.25c0.4,0,0.4,0.34,0.4,3.54c0,1.98-0.07,2.13-0.5,2.13H493.05z"/>
	<path class="st0" d="M505.83,45.21c0-0.88-0.23-1.14-1.39-1.41c-0.17-0.04-0.3-0.19-0.3-0.38c0-0.19,0.23-0.38,0.96-0.69
		c1.56-0.65,2.22-1.52,2.45-1.52c0.17,0,0.27,0.11,0.27,0.38v14.59c0,1.07,0,1.68,1.16,1.94c0.63,0.15,0.83,0.23,0.83,0.53
		c0,0.27-0.1,0.38-0.5,0.38c-0.43,0-0.8-0.15-2.52-0.15c-1.79,0-2.19,0.15-2.49,0.15c-0.23,0-0.4-0.15-0.4-0.42
		c0-0.23,0.13-0.42,0.56-0.49c1.19-0.23,1.36-0.42,1.36-1.75V45.21z M506.82,34.9c0.66,0,1.22,0.57,1.22,1.9
		c0,1.37-0.56,1.9-1.22,1.9c-0.63,0-1.23-0.53-1.23-1.9C505.6,35.47,506.2,34.9,506.82,34.9z"/>
	<path class="st0" d="M519.47,50.28c0,3.81-1.13,8.15-3.54,8.15c-2.42,0-3.54-4.34-3.54-8.15c0-3.81,1.13-8.15,3.54-8.15
		C518.35,42.13,519.47,46.47,519.47,50.28z M521.66,50.28c0-4.84-2.28-9.06-5.73-9.06c-3.44,0-5.73,4.23-5.73,9.06
		c0,4.84,2.28,9.06,5.73,9.06C519.37,59.34,521.66,55.12,521.66,50.28z"/>
	<path class="st0" d="M525.67,56.79c0,0.88,0.13,1.18,0.93,1.33c1.06,0.19,1.22,0.15,1.22,0.53c0,0.27-0.2,0.38-0.46,0.38
		c-0.2,0-0.56-0.15-2.78-0.15c-1.52,0-1.79,0.15-2.09,0.15c-0.43,0-0.6-0.15-0.6-0.46c0-0.19,0.17-0.42,0.46-0.46
		c1.09-0.15,1.32-0.49,1.32-1.98V45.25c0-1.06-0.13-1.14-0.99-1.22c-0.53-0.04-0.66-0.08-0.66-0.34c0-0.19,0.2-0.34,0.63-0.57
		c1.75-0.91,2.38-1.9,2.62-1.9c0.13,0,0.23,0.19,0.23,0.46c0,2.1,0,2.21,0.17,2.21c0.59,0,2.09-2.44,4.37-2.44
		c1.85,0,3.68,1.29,3.78,4.34v10.55c0,1.26,0.26,1.71,0.93,1.79c0.76,0.08,0.99,0.19,0.99,0.53c0,0.27-0.23,0.38-0.46,0.38
		c-0.13,0-0.59-0.15-2.45-0.15c-1.69,0-1.92,0.15-2.28,0.15c-0.36,0-0.5-0.12-0.5-0.42c0-0.23,0.23-0.42,0.63-0.49
		c0.89-0.15,1.16-0.38,1.16-1.37V46.09c0-2.06-1.13-3.2-2.71-3.2c-1.69,0-3.44,1.52-3.44,3.43V56.79z"/>
	<path class="st0" d="M543.64,54.05c0,1.07-0.27,1.64-0.99,2.4c-0.73,0.76-1.42,1.3-2.19,1.3c-0.93,0-1.66-0.72-1.66-2.25
		c0-2.21,1.56-3.96,3.74-5.67c0.53-0.42,0.63-0.46,0.83-0.46c0.2,0,0.27,0.12,0.27,0.5V54.05z M545.63,43.85
		c0-2.06-0.6-2.63-2.58-2.63c-1.59,0-3.34,0.65-4.67,2.02c-1.49,1.56-1.89,2.78-1.89,3.69c0,0.61,0.17,0.84,0.69,0.84
		c1.13,0,1.75-1.03,1.99-1.98c0.5-2.09,1.29-3.65,3.08-3.65c0.96,0,1.39,0.61,1.39,2.63v2.17c0,1.29-0.6,1.49-3.54,3.96
		c-2.55,2.13-3.48,3.24-3.48,5.1c0,2.21,1.06,3.35,2.42,3.35c2.81,0,4.01-2.78,4.54-2.78c0.5,0,0.17,2.63,2.12,2.63
		c1.92,0,2.65-2.32,2.65-3.08c0-0.42-0.1-0.53-0.26-0.53c-0.5,0-0.27,1.71-1.52,1.71c-0.6,0-0.93-0.76-0.93-1.37V43.85z"/>
	<path class="st0" d="M550.5,35.24c0-0.57-0.16-0.8-0.96-0.95c-0.53-0.11-0.7-0.15-0.7-0.42c0-0.27,0.1-0.34,0.46-0.49
		c2.68-1.11,2.68-1.45,3.01-1.45c0.1,0,0.16,0.08,0.16,0.53v24.37c0,0.95,0.4,0.95,1.49,1.29c0.36,0.12,0.63,0.15,0.63,0.46
		c0,0.27-0.13,0.46-0.36,0.46c-0.27,0-0.66-0.15-2.72-0.15c-1.82,0-2.22,0.15-2.55,0.15c-0.17,0-0.4-0.12-0.4-0.46
		c0-0.23,0.26-0.42,0.53-0.46c1.19-0.19,1.39-0.57,1.39-1.6V35.24z"/>
	<path class="st0" d="M556.82,47.69c0-3.12,1.39-5.56,3.18-5.56c1.46,0,2.52,1.52,2.52,4.15c0,1.03-0.13,1.45-0.43,1.71
		c-0.3,0.27-1.59,0.53-3.81,0.53C556.89,48.53,556.82,48.38,556.82,47.69z M563.58,49.59c0.79,0,0.79-0.11,0.79-2.36
		c0-3.81-1.79-6.02-4.17-6.02c-2.85,0-5.63,3.05-5.63,9.45c0,5.18,2.12,8.68,5.76,8.68c2.62,0,4.1-2.21,4.1-4.61
		c0-0.38-0.1-0.46-0.23-0.46c-0.23,0-0.23,0.38-0.63,1.29c-0.56,1.29-1.49,2.17-2.91,2.17c-2.32,0-3.91-2.9-3.91-7.47
		c0-0.38,0.2-0.69,0.76-0.69H563.58z"/>
	<path class="st0" d="M396.76,90.14c0,1.83-1.42,2.59-2.65,2.59c-2.32,0-3.45-2.51-3.45-8c0-5.87,1.99-7.77,3.41-7.77
		c1.59,0,2.68,1.6,2.68,3.77V90.14z M396.76,76.96c0,0.11-0.03,0.19-0.13,0.19c-0.26,0-0.93-1.1-2.55-1.1c-3.44,0-5.6,4.49-5.6,9.25
		c0,5.29,1.59,8.87,5.03,8.87c2.35,0,2.88-1.9,3.21-1.9c0.13,0,0.23,0.23,0.23,0.42l0.13,0.91c0.07,0.42,0.23,0.57,0.53,0.57
		c0.17,0,0.33,0,1.66-0.69c1.16-0.61,1.36-0.65,1.36-1.98c0-0.61-0.07-0.8-0.3-0.8c-0.36,0-0.5,1.79-1.33,1.79
		c-0.17,0-0.26-0.27-0.26-1.45V67.29c0-0.46-0.07-0.53-0.17-0.53c-0.33,0-0.33,0.34-3.01,1.45c-0.36,0.15-0.46,0.23-0.46,0.5
		c0,0.27,0.16,0.3,0.7,0.42c0.79,0.15,0.96,0.38,0.96,0.95V76.96z"/>
	<path class="st0" d="M403.35,80.04c0-0.88-0.23-1.14-1.39-1.41c-0.17-0.04-0.3-0.19-0.3-0.38c0-0.19,0.23-0.38,0.96-0.69
		c1.56-0.65,2.22-1.52,2.45-1.52c0.17,0,0.27,0.11,0.27,0.38v14.58c0,1.07,0,1.68,1.16,1.94c0.63,0.15,0.83,0.23,0.83,0.53
		c0,0.27-0.1,0.38-0.5,0.38c-0.43,0-0.8-0.15-2.52-0.15c-1.79,0-2.18,0.15-2.48,0.15c-0.23,0-0.4-0.15-0.4-0.42
		c0-0.23,0.13-0.42,0.56-0.49c1.19-0.23,1.36-0.42,1.36-1.75V80.04z M404.35,69.73c0.66,0,1.23,0.57,1.23,1.9
		c0,1.37-0.56,1.9-1.23,1.9c-0.63,0-1.22-0.53-1.22-1.9C403.12,70.3,403.72,69.73,404.35,69.73z"/>
	<path class="st0" d="M419.78,94.33c-1.86,0-3.18-0.46-3.88-0.95c-0.46-0.34-0.59-0.72-0.59-4.15c0-2.67,0.1-2.74,0.46-2.74
		c0.4,0,0.4,0.19,0.46,0.57c0.83,4.68,2.28,6.36,4.24,6.36c2.19,0,3.71-2.25,3.71-5.1c0-6.7-8.74-6.28-8.74-13.37
		c0-3.12,2.52-5.67,5.63-5.67c1.39,0,3.21,0.65,3.64,1.14c0.2,0.23,0.2,0.46,0.2,3.62c0,1.98,0,2.06-0.33,2.06
		c-0.46,0-0.36-0.61-0.56-1.41c-0.83-3.35-2.02-4.49-3.48-4.49c-1.66,0-3.11,1.68-3.11,3.66c0,6.74,8.74,5.71,8.74,13.33
		C426.17,91.51,423.52,94.33,419.78,94.33z"/>
	<path class="st0" d="M430.67,91.05c0,1.29,0.4,1.52,0.99,1.52c1.26,0,1.49-2.21,2.02-2.21c0.2,0,0.3,0.07,0.3,0.3
		c0,0.3-0.33,1.52-0.76,2.36c-0.46,0.92-1.19,1.14-2.08,1.14c-1.49,0-2.45-0.87-2.45-3.27V78.1c0-0.61-0.56-0.61-1.06-0.61
		c-0.3,0-0.53,0-0.53-0.46c0-0.46,1.03-1.1,2.72-4.8c0.33-0.72,0.33-0.91,0.56-0.91c0.2,0,0.3,0.11,0.3,0.95v3.39
		c0,0.61,0.17,0.84,0.66,0.84h1.33c0.6,0,0.83,0.11,0.83,0.57c0,0.5-0.2,0.72-0.89,0.72h-1.49c-0.33,0-0.43,0.12-0.43,0.69V91.05z"
		/>
	<path class="st0" d="M442.22,88.88c0,1.07-0.26,1.64-0.99,2.4c-0.73,0.76-1.43,1.29-2.19,1.29c-0.93,0-1.65-0.72-1.65-2.25
		c0-2.21,1.56-3.96,3.74-5.67c0.53-0.42,0.63-0.46,0.82-0.46c0.2,0,0.26,0.11,0.26,0.5V88.88z M444.21,78.67
		c0-2.06-0.6-2.63-2.58-2.63c-1.59,0-3.34,0.65-4.67,2.02c-1.49,1.56-1.89,2.78-1.89,3.69c0,0.61,0.17,0.84,0.7,0.84
		c1.13,0,1.75-1.03,1.99-1.98c0.5-2.1,1.29-3.66,3.08-3.66c0.96,0,1.39,0.61,1.39,2.63v2.17c0,1.29-0.59,1.49-3.54,3.96
		c-2.55,2.13-3.48,3.24-3.48,5.1c0,2.21,1.06,3.35,2.42,3.35c2.81,0,4.01-2.78,4.54-2.78c0.5,0,0.17,2.63,2.12,2.63
		c1.92,0,2.65-2.32,2.65-3.09c0-0.42-0.1-0.53-0.26-0.53c-0.5,0-0.26,1.72-1.52,1.72c-0.59,0-0.93-0.76-0.93-1.37V78.67z"/>
	<path class="st0" d="M450.57,91.05c0,1.29,0.4,1.52,0.99,1.52c1.26,0,1.49-2.21,2.02-2.21c0.2,0,0.3,0.07,0.3,0.3
		c0,0.3-0.33,1.52-0.76,2.36c-0.46,0.92-1.19,1.14-2.09,1.14c-1.49,0-2.45-0.87-2.45-3.27V78.1c0-0.61-0.56-0.61-1.06-0.61
		c-0.3,0-0.53,0-0.53-0.46c0-0.46,1.03-1.1,2.71-4.8c0.33-0.72,0.33-0.91,0.56-0.91c0.2,0,0.3,0.11,0.3,0.95v3.39
		c0,0.61,0.17,0.84,0.66,0.84h1.33c0.6,0,0.83,0.11,0.83,0.57c0,0.5-0.2,0.72-0.89,0.72H451c-0.33,0-0.43,0.12-0.43,0.69V91.05z"/>
	<path class="st0" d="M456.26,80.04c0-0.88-0.23-1.14-1.39-1.41c-0.17-0.04-0.3-0.19-0.3-0.38c0-0.19,0.23-0.38,0.96-0.69
		c1.56-0.65,2.22-1.52,2.45-1.52c0.16,0,0.26,0.11,0.26,0.38v14.58c0,1.07,0,1.68,1.16,1.94c0.63,0.15,0.83,0.23,0.83,0.53
		c0,0.27-0.1,0.38-0.5,0.38c-0.43,0-0.8-0.15-2.52-0.15c-1.79,0-2.18,0.15-2.48,0.15c-0.23,0-0.4-0.15-0.4-0.42
		c0-0.23,0.13-0.42,0.56-0.49c1.19-0.23,1.36-0.42,1.36-1.75V80.04z M457.26,69.73c0.66,0,1.22,0.57,1.22,1.9
		c0,1.37-0.56,1.9-1.22,1.9c-0.63,0-1.23-0.53-1.23-1.9C456.03,70.3,456.63,69.73,457.26,69.73z"/>
	<path class="st0" d="M465.83,76.05c1.06,0,1.89,0.27,2.48,0.61c0.17,0.12,0.2,0.69,0.2,2.13c0,1.33,0,1.98-0.33,1.98
		c-0.33,0-0.33-0.57-0.83-2.02c-0.36-1.03-0.86-1.79-1.89-1.79c-1.42,0-2.48,1.14-2.48,2.63c0,3.69,6.39,3.81,6.39,9.14
		c0,3.43-1.95,5.44-4.93,5.44c-1.39,0-2.05-0.27-2.62-0.46c-0.33-0.12-0.46-0.46-0.46-3.09c0-1.94,0.1-2.25,0.36-2.25
		c0.33,0,0.27,0.38,0.79,2.21c0.46,1.56,1.23,2.67,2.45,2.67c1.56,0,2.55-1.26,2.55-3.05c0-4.87-6.19-3.89-6.19-9.6
		C461.33,77.3,463.71,76.05,465.83,76.05z"/>
	<path class="st0" d="M473.98,91.05c0,1.29,0.4,1.52,0.99,1.52c1.26,0,1.49-2.21,2.02-2.21c0.2,0,0.3,0.07,0.3,0.3
		c0,0.3-0.33,1.52-0.76,2.36c-0.46,0.92-1.19,1.14-2.09,1.14c-1.49,0-2.45-0.87-2.45-3.27V78.1c0-0.61-0.56-0.61-1.06-0.61
		c-0.3,0-0.53,0-0.53-0.46c0-0.46,1.03-1.1,2.71-4.8c0.33-0.72,0.33-0.91,0.56-0.91c0.2,0,0.3,0.11,0.3,0.95v3.39
		c0,0.61,0.17,0.84,0.66,0.84h1.32c0.6,0,0.83,0.11,0.83,0.57c0,0.5-0.2,0.72-0.89,0.72h-1.49c-0.33,0-0.43,0.12-0.43,0.69V91.05z"
		/>
	<path class="st0" d="M479.67,80.04c0-0.88-0.23-1.14-1.39-1.41c-0.17-0.04-0.3-0.19-0.3-0.38c0-0.19,0.23-0.38,0.96-0.69
		c1.56-0.65,2.22-1.52,2.45-1.52c0.17,0,0.27,0.11,0.27,0.38v14.58c0,1.07,0,1.68,1.16,1.94c0.63,0.15,0.83,0.23,0.83,0.53
		c0,0.27-0.1,0.38-0.5,0.38c-0.43,0-0.79-0.15-2.52-0.15c-1.79,0-2.18,0.15-2.48,0.15c-0.23,0-0.4-0.15-0.4-0.42
		c0-0.23,0.13-0.42,0.56-0.49c1.19-0.23,1.36-0.42,1.36-1.75V80.04z M480.67,69.73c0.66,0,1.22,0.57,1.22,1.9
		c0,1.37-0.56,1.9-1.22,1.9c-0.63,0-1.23-0.53-1.23-1.9C479.44,70.3,480.04,69.73,480.67,69.73z"/>
	<path class="st0" d="M490.27,76.05c1.19,0,1.89,0.19,2.32,0.46c0.83,0.49,0.86,0.57,0.86,1.67c0,3.12-0.07,3.47-0.83,3.47
		c-0.46,0-0.5-0.69-1.16-2.4c-0.53-1.37-0.8-1.9-1.79-1.9c-2.05,0-3.64,2.89-3.64,6.97c0,5.6,1.72,8.03,3.81,8.03
		c1.22,0,2.02-0.61,2.65-1.75c0.66-1.18,0.6-1.98,1.03-1.98c0.26,0,0.33,0.15,0.33,0.53c0,2.66-1.66,5.02-4.6,5.02
		c-3.34,0-5.4-3.39-5.4-8.41C483.84,80.16,486.53,76.05,490.27,76.05z"/>
	<path class="st0" d="M502.42,88.88c0,1.07-0.26,1.64-0.99,2.4c-0.73,0.76-1.42,1.29-2.18,1.29c-0.93,0-1.66-0.72-1.66-2.25
		c0-2.21,1.56-3.96,3.74-5.67c0.53-0.42,0.63-0.46,0.83-0.46c0.2,0,0.26,0.11,0.26,0.5V88.88z M504.41,78.67
		c0-2.06-0.6-2.63-2.58-2.63c-1.59,0-3.35,0.65-4.67,2.02c-1.49,1.56-1.89,2.78-1.89,3.69c0,0.61,0.17,0.84,0.7,0.84
		c1.13,0,1.75-1.03,1.99-1.98c0.5-2.1,1.29-3.66,3.08-3.66c0.96,0,1.39,0.61,1.39,2.63v2.17c0,1.29-0.59,1.49-3.54,3.96
		c-2.55,2.13-3.48,3.24-3.48,5.1c0,2.21,1.06,3.35,2.42,3.35c2.81,0,4.01-2.78,4.54-2.78c0.5,0,0.17,2.63,2.12,2.63
		c1.92,0,2.65-2.32,2.65-3.09c0-0.42-0.1-0.53-0.27-0.53c-0.5,0-0.26,1.72-1.52,1.72c-0.59,0-0.93-0.76-0.93-1.37V78.67z"/>
</g>
<g>
	<path class="st0" d="M173.08,24.44c0-3.93-0.89-4.94-4.05-5.57c-4.69-0.89-5.83-0.51-5.83-2.15c0-1.01,0.89-1.39,2.28-1.39
		c2.91,0,5.57,0.51,14.82,0.51c4.31,0,9.88-0.51,12.67-0.51c1.39,0,2.03,0.13,2.03,1.14c0,1.9-1.01,1.52-6.59,2.41
		c-1.65,0.25-2.91,1.9-2.91,4.81v62.11c0,4.05,0.51,4.18,5.95,5.57c2.91,0.76,3.93,0.51,3.93,2.03c0,0.76-0.38,1.52-2.41,1.52
		c-2.15,0-5.45-0.51-13.04-0.51c-10.51,0-12.67,0.51-14.95,0.51c-1.27,0-1.77-0.51-1.77-1.65c0-1.14,1.27-1.65,3.42-1.9
		c5.44-0.63,6.46-1.77,6.46-7.09V24.44z"/>
	<path class="st0" d="M196.13,79.07c0-1.65,0.63-2.41,1.9-2.41c1.14,0,1.9,1.14,3.55,5.83c2.28,6.71,5.7,10.89,11.78,10.89
		c5.83,0,9.37-4.81,9.37-11.02c0-14.82-26.85-14.18-26.85-30.27c0-11.15,10.76-16.97,19.5-16.97c4.43,0,9.63,0.89,11.65,1.77
		c1.52,0.63,1.65,1.39,1.65,8.99c0,4.05-0.38,4.81-2.28,4.81c-3.55,0-1.65-12.54-13.04-12.54c-5.32,0-8.61,3.55-8.61,8.48
		c0,13.3,26.85,11.78,26.85,30.9c0,10.64-9.12,18.87-22.29,18.87c-5.32,0-13.17-2.03-13.17-4.31V79.07z"/>
	<path class="st0" d="M247.68,37.15h8.11c1.27,0,1.52,0.51,1.52,2.15c0,1.65-0.25,2.15-1.52,2.15h-7.47c-0.51,0-0.63,0.51-0.63,0.76
		V81.1c0,5.57,1.27,7.72,3.8,7.72c3.55,0,4.69-6.08,6.46-6.08c0.76,0,1.14,0.51,1.14,1.65c0,1.9-3.93,12.03-12.16,12.03
		c-7.47,0-9.63-6.84-9.63-15.2V43.48c0-1.52-0.38-2.03-1.39-2.03h-3.42c-1.14,0-1.27-0.38-1.27-1.14c0-1.52,2.28-2.03,6.84-6.96
		c6.46-6.97,6.08-12.41,8.36-12.41c0.63,0,1.27,0.76,1.27,1.9V37.15z"/>
	<path class="st0" d="M287.44,72.36c0,11.4-3.29,15.96-9.24,15.96c-3.55,0-5.7-3.04-5.7-6.97c0.38-8.87,12.03-18.87,13.68-18.87
		c0.89,0,1.27,0.25,1.27,1.77V72.36z M297.83,43.74c0-6.84-2.66-8.61-12.54-8.61c-15.2,0-25.33,13.68-25.33,18.62
		c0,2.53,1.52,4.18,4.56,4.18c4.68,0,7.22-3.42,7.85-8.99c0.76-6.71,4.94-10.76,9.75-10.76c3.42,0,5.32,2.28,5.32,5.57v10.89
		c0,7.98-26.6,16.84-26.6,30.78c0,7.47,4.05,11.02,10.64,11.02c9.88,0,13.68-9.88,15.2-9.88s2.41,9.37,10.51,9.37
		c5.45,0,11.02-5.95,11.02-10.13c0-1.01-0.38-1.52-1.14-1.52c-2.03,0-2.41,4.05-5.07,4.05c-1.9,0-4.18-1.52-4.18-6.59V43.74z"/>
	<path class="st0" d="M321.51,37.15h8.1c1.27,0,1.52,0.51,1.52,2.15c0,1.65-0.25,2.15-1.52,2.15h-7.47c-0.51,0-0.63,0.51-0.63,0.76
		V81.1c0,5.57,1.27,7.72,3.8,7.72c3.55,0,4.69-6.08,6.46-6.08c0.76,0,1.14,0.51,1.14,1.65c0,1.9-3.92,12.03-12.16,12.03
		c-7.47,0-9.63-6.84-9.63-15.2V43.48c0-1.52-0.38-2.03-1.39-2.03h-3.42c-1.14,0-1.27-0.38-1.27-1.14c0-1.52,2.28-2.03,6.84-6.96
		c6.46-6.97,6.08-12.41,8.36-12.41c0.63,0,1.27,0.76,1.27,1.9V37.15z"/>
	<g>
		<path class="st1" d="M89.7,94.41l0.12-0.23c0.28-0.5,0.34-1.37,0.16-1.8c-0.32-0.77-1.19-1.19-1.77-1.34
			c-1.27-0.34-2.22-0.41-3.51-0.61c-0.96-0.15-2.12-0.29-2.98-0.74c-1.07-0.56-1.66-0.91-2.17-1.89c-0.77-1.48-0.77-2.77-0.87-4.38
			l0-74.74c0.14-4.55,3.65-6.74,4.32-7.2c2.23-1.54,6.72-1.95,11.44-0.86c4.49,1.04,43.44,13.86,47.16,15.08l0,0.04V94.4L89.7,94.41
			z"/>
		<path class="st2" d="M51.9,94.41l-0.13-0.23c-0.28-0.5-0.34-1.37-0.16-1.8c0.32-0.77,1.19-1.19,1.77-1.34
			c1.27-0.34,2.22-0.41,3.51-0.61c0.96-0.15,2.12-0.29,2.98-0.74c1.07-0.56,1.66-0.91,2.17-1.89c0.77-1.48,0.76-2.77,0.87-4.38
			l0-74.74c-0.14-4.55-3.65-6.74-4.32-7.2c-2.23-1.54-6.72-1.95-11.44-0.86C42.67,1.66,3.72,14.47,0,15.69l0,0.04V94.4L51.9,94.41z"
			/>
	</g>
</g>
<g>
	<line class="st3" x1="360.22" y1="94.9" x2="360.22" y2="15.73"/>
</g>
</svg>
