<?xml version="1.0" encoding="utf-8"?>
<!-- Generator: Adobe Illustrator 25.4.1, SVG Export Plug-In . SVG Version: 6.00 Build 0)  -->
<svg version="1.1" id="Livello_1" xmlns="http://www.w3.org/2000/svg" xmlns:xlink="http://www.w3.org/1999/xlink" x="0px" y="0px"
	 viewBox="0 0 595.28 841.89" style="enable-background:new 0 0 595.28 841.89;" xml:space="preserve">
<style type="text/css">
	.st0{fill:#E52713;}
	.st1{fill:#666666;}
	.st2{fill:#AB273B;}
</style>
<g>
	<g>
		<g>
			<path class="st1" d="M271.17,428.52c0,0.87,0.13,1.43,0.86,1.61c0.51,0.12,1.08,0.16,1.08,0.59c0,0.16-0.11,0.28-0.59,0.28
				c-0.24,0-0.38-0.12-2.24-0.12s-1.97,0.12-2.24,0.12c-0.32,0-0.51,0-0.51-0.34c0-0.37,0.49-0.4,0.97-0.53
				c0.81-0.22,0.89-0.37,0.89-1.46v-15.37c0-0.84-0.22-1.02-0.76-1.12c-0.89-0.16-1.13-0.03-1.13-0.5c0-0.19,0.13-0.37,0.57-0.37
				c0.67,0,1.43,0.12,2.21,0.12c0.84,0,1.7-0.12,2.29-0.12c0.38,0,0.59,0.12,0.59,0.4c0,0.37-0.32,0.31-1.24,0.47
				c-0.57,0.09-0.76,0.53-0.76,1.12V428.52z"/>
			<path class="st1" d="M277.75,416.47c0.86,0,1.54,0.22,2.02,0.5c0.14,0.09,0.16,0.56,0.16,1.74c0,1.09,0,1.61-0.27,1.61
				s-0.27-0.47-0.67-1.65c-0.3-0.84-0.7-1.46-1.54-1.46c-1.16,0-2.02,0.93-2.02,2.14c0,3.01,5.21,3.1,5.21,7.45
				c0,2.79-1.59,4.44-4.02,4.44c-1.13,0-1.67-0.22-2.13-0.37c-0.27-0.09-0.38-0.37-0.38-2.52c0-1.58,0.08-1.83,0.3-1.83
				c0.27,0,0.22,0.31,0.65,1.8c0.38,1.27,1,2.17,2,2.17c1.27,0,2.08-1.03,2.08-2.48c0-3.97-5.05-3.17-5.05-7.82
				C274.08,417.5,276.02,416.47,277.75,416.47z"/>
			<path class="st1" d="M284.12,428.71c0,1.05,0.32,1.24,0.81,1.24c1.03,0,1.21-1.8,1.65-1.8c0.16,0,0.24,0.06,0.24,0.25
				c0,0.25-0.27,1.24-0.62,1.92c-0.38,0.75-0.97,0.93-1.7,0.93c-1.21,0-2-0.71-2-2.67v-10.43c0-0.5-0.46-0.5-0.86-0.5
				c-0.24,0-0.43,0-0.43-0.37c0-0.37,0.84-0.9,2.21-3.91c0.27-0.59,0.27-0.75,0.46-0.75c0.16,0,0.24,0.09,0.24,0.78v2.76
				c0,0.5,0.13,0.68,0.54,0.68h1.08c0.49,0,0.67,0.09,0.67,0.47c0,0.4-0.16,0.59-0.73,0.59h-1.21c-0.27,0-0.35,0.09-0.35,0.56
				V428.71z"/>
			<path class="st1" d="M288.77,419.73c0-0.71-0.19-0.93-1.13-1.15c-0.14-0.03-0.24-0.16-0.24-0.31c0-0.16,0.19-0.31,0.78-0.56
				c1.27-0.53,1.81-1.24,2-1.24c0.14,0,0.22,0.09,0.22,0.31v11.89c0,0.87,0,1.37,0.94,1.58c0.51,0.12,0.68,0.19,0.68,0.43
				c0,0.22-0.08,0.31-0.41,0.31c-0.35,0-0.65-0.12-2.05-0.12c-1.46,0-1.78,0.12-2.03,0.12c-0.19,0-0.32-0.12-0.32-0.34
				c0-0.19,0.11-0.34,0.46-0.4c0.97-0.19,1.11-0.34,1.11-1.43V419.73z M289.58,411.32c0.54,0,1,0.47,1,1.55c0,1.12-0.46,1.55-1,1.55
				c-0.51,0-1-0.43-1-1.55C288.58,411.78,289.07,411.32,289.58,411.32z"/>
			<path class="st1" d="M295.17,428.71c0,1.05,0.32,1.24,0.81,1.24c1.03,0,1.22-1.8,1.65-1.8c0.16,0,0.24,0.06,0.24,0.25
				c0,0.25-0.27,1.24-0.62,1.92c-0.38,0.75-0.97,0.93-1.7,0.93c-1.21,0-2-0.71-2-2.67v-10.43c0-0.5-0.46-0.5-0.86-0.5
				c-0.24,0-0.43,0-0.43-0.37c0-0.37,0.84-0.9,2.21-3.91c0.27-0.59,0.27-0.75,0.46-0.75c0.16,0,0.24,0.09,0.24,0.78v2.76
				c0,0.5,0.14,0.68,0.54,0.68h1.08c0.49,0,0.67,0.09,0.67,0.47c0,0.4-0.16,0.59-0.73,0.59h-1.22c-0.27,0-0.35,0.09-0.35,0.56
				V428.71z"/>
			<path class="st1" d="M301.11,427.28c0,1.68,0.92,2.61,2.21,2.61c1.38,0,2.81-1.24,2.81-2.79v-8.41c0-0.71-0.08-0.99-0.76-1.09
				c-0.7-0.09-0.89-0.03-0.89-0.47c0-0.19,0.14-0.4,0.46-0.4h2.4c0.27,0,0.41,0.06,0.41,0.71v10.49c0,1.12,0.11,1.4,0.62,1.46
				c0.59,0.06,0.73,0.12,0.73,0.37c0,0.16-0.16,0.31-0.51,0.47c-1.24,0.56-2.03,1.02-2.13,1.02c-0.08,0-0.19-0.06-0.19-0.9
				c0-1.15-0.03-1.21-0.19-1.21c-0.43,0-1.4,1.92-3.51,1.92c-1.51,0-3-0.68-3.08-3.35v-9.19c0-0.62-0.16-0.87-0.76-0.93
				c-0.54-0.06-0.7-0.16-0.7-0.43c0-0.22,0.16-0.43,0.57-0.43h2.08c0.41,0,0.43,0.12,0.43,1.21V427.28z"/>
			<path class="st1" d="M312.61,428.71c0,1.05,0.32,1.24,0.81,1.24c1.03,0,1.22-1.8,1.65-1.8c0.16,0,0.24,0.06,0.24,0.25
				c0,0.25-0.27,1.24-0.62,1.92c-0.38,0.75-0.97,0.93-1.7,0.93c-1.21,0-2-0.71-2-2.67v-10.43c0-0.5-0.46-0.5-0.86-0.5
				c-0.24,0-0.43,0-0.43-0.37c0-0.37,0.84-0.9,2.21-3.91c0.27-0.59,0.27-0.75,0.46-0.75c0.16,0,0.24,0.09,0.24,0.78v2.76
				c0,0.5,0.13,0.68,0.54,0.68h1.08c0.49,0,0.67,0.09,0.67,0.47c0,0.4-0.16,0.59-0.73,0.59h-1.22c-0.27,0-0.35,0.09-0.35,0.56
				V428.71z"/>
			<path class="st1" d="M323.19,423.86c0,3.1-0.92,6.64-2.89,6.64s-2.89-3.54-2.89-6.64c0-3.11,0.92-6.65,2.89-6.65
				S323.19,420.76,323.19,423.86z M324.97,423.86c0-3.94-1.86-7.39-4.67-7.39c-2.81,0-4.67,3.45-4.67,7.39
				c0,3.94,1.86,7.39,4.67,7.39C323.11,431.25,324.97,427.81,324.97,423.86z"/>
			<path class="st1" d="M342.01,430.66c0,0.87,0,0.9-0.3,0.9c-0.32,0-0.27-0.34-4.37-9.04c-3.64-7.73-3.62-8.23-3.89-8.23
				c-0.13,0-0.19,0.09-0.19,0.68v10.93c0,3.04,0.16,4.07,0.84,4.22c0.76,0.19,1.38,0.03,1.38,0.56c0,0.25-0.16,0.31-0.41,0.31
				c-0.32,0-0.38-0.12-1.89-0.12c-1.35,0-1.73,0.12-2.16,0.12c-0.22,0-0.3-0.12-0.3-0.31c0-0.37,0.86-0.43,1.16-0.56
				c0.51-0.22,0.62-0.87,0.62-1.8V413.9c0-1.09-0.11-1.61-0.62-1.71c-0.68-0.12-0.92-0.09-0.92-0.5c0-0.34,0.38-0.37,0.59-0.37
				c0.54,0,1.46,0.06,1.86,0.06l0.54,0.03c0.41,0.03,0.51,0.62,0.84,1.37l3.86,8.51c2.24,4.94,2.35,5.06,2.46,5.06
				c0.11,0,0.13-0.16,0.13-0.43v-11.43c0-1.74-0.32-2.2-0.94-2.3c-0.54-0.09-0.92-0.19-0.92-0.5c0-0.22,0.16-0.37,0.35-0.37
				c0.3,0,0.67,0.12,1.89,0.12c0.59,0,1.13-0.12,1.65-0.12c0.35,0,0.43,0.09,0.43,0.37c0,0.37-0.27,0.37-0.92,0.5
				c-0.62,0.12-0.78,0.62-0.78,1.65V430.66z"/>
			<path class="st1" d="M349.52,426.94c0,0.87-0.22,1.33-0.81,1.96c-0.59,0.62-1.16,1.06-1.78,1.06c-0.76,0-1.35-0.59-1.35-1.83
				c0-1.8,1.27-3.23,3.05-4.63c0.43-0.34,0.51-0.37,0.68-0.37c0.16,0,0.22,0.09,0.22,0.4V426.94z M351.14,418.62
				c0-1.68-0.49-2.14-2.11-2.14c-1.3,0-2.73,0.53-3.81,1.65c-1.21,1.27-1.54,2.27-1.54,3.01c0,0.5,0.13,0.68,0.57,0.68
				c0.92,0,1.43-0.84,1.62-1.61c0.41-1.71,1.05-2.98,2.51-2.98c0.78,0,1.13,0.5,1.13,2.14v1.77c0,1.06-0.49,1.21-2.89,3.23
				c-2.08,1.74-2.84,2.64-2.84,4.16c0,1.8,0.86,2.73,1.97,2.73c2.29,0,3.27-2.27,3.7-2.27c0.41,0,0.14,2.14,1.73,2.14
				c1.57,0,2.16-1.89,2.16-2.52c0-0.34-0.08-0.43-0.22-0.43c-0.41,0-0.22,1.4-1.24,1.4c-0.49,0-0.76-0.62-0.76-1.12V418.62z"/>
			<path class="st1" d="M353.54,430.88c-0.13,0-0.22-0.09-0.22-0.28c0-0.28,0.13-0.37,0.54-1.18l5.16-10.56
				c0.35-0.71,0.46-0.87,0.46-1.02c0-0.12-0.11-0.25-0.92-0.25c-2.51,0-3.13,0.25-3.81,1.83c-0.49,1.12-0.46,1.4-0.73,1.4
				c-0.16,0-0.24-0.16-0.24-0.31c0-0.25,0.11-0.62,0.35-2.36c0.24-1.77,0.3-2.11,0.57-2.11c0.51,0,0.22,0.81,1.03,0.81h5.35
				c0.35,0,0.43,0.12,0.43,0.28c0,0.16-0.05,0.34-0.46,1.15l-5.56,11.27c-0.14,0.28-0.14,0.37-0.14,0.43c0,0.16,0,0.16,1.59,0.16
				c2.73,0,3.16-0.5,3.64-2.05c0.38-1.18,0.19-1.83,0.57-1.83c0.32,0,0.32,0.28,0.32,2.89c0,1.61-0.05,1.74-0.41,1.74H353.54z"/>
			<path class="st1" d="M363.96,419.73c0-0.71-0.19-0.93-1.13-1.15c-0.13-0.03-0.24-0.16-0.24-0.31c0-0.16,0.19-0.31,0.78-0.56
				c1.27-0.53,1.81-1.24,2-1.24c0.13,0,0.22,0.09,0.22,0.31v11.89c0,0.87,0,1.37,0.95,1.58c0.51,0.12,0.67,0.19,0.67,0.43
				c0,0.22-0.08,0.31-0.41,0.31c-0.35,0-0.65-0.12-2.05-0.12c-1.46,0-1.78,0.12-2.03,0.12c-0.19,0-0.32-0.12-0.32-0.34
				c0-0.19,0.11-0.34,0.46-0.4c0.97-0.19,1.11-0.34,1.11-1.43V419.73z M364.77,411.32c0.54,0,1,0.47,1,1.55c0,1.12-0.46,1.55-1,1.55
				c-0.51,0-1-0.43-1-1.55C363.77,411.78,364.26,411.32,364.77,411.32z"/>
			<path class="st1" d="M375.08,423.86c0,3.1-0.92,6.64-2.89,6.64s-2.89-3.54-2.89-6.64c0-3.11,0.92-6.65,2.89-6.65
				S375.08,420.76,375.08,423.86z M376.87,423.86c0-3.94-1.86-7.39-4.67-7.39c-2.81,0-4.67,3.45-4.67,7.39
				c0,3.94,1.86,7.39,4.67,7.39C375,431.25,376.87,427.81,376.87,423.86z"/>
			<path class="st1" d="M380.13,429.17c0,0.71,0.11,0.96,0.76,1.09c0.86,0.15,1,0.12,1,0.43c0,0.22-0.16,0.31-0.38,0.31
				c-0.16,0-0.46-0.12-2.27-0.12c-1.24,0-1.46,0.12-1.7,0.12c-0.35,0-0.49-0.12-0.49-0.37c0-0.16,0.13-0.34,0.38-0.37
				c0.89-0.12,1.08-0.4,1.08-1.62v-8.88c0-0.87-0.11-0.93-0.81-0.99c-0.43-0.03-0.54-0.06-0.54-0.28c0-0.16,0.16-0.28,0.51-0.47
				c1.43-0.75,1.94-1.55,2.13-1.55c0.11,0,0.19,0.16,0.19,0.37c0,1.71,0,1.8,0.13,1.8c0.49,0,1.7-1.99,3.56-1.99
				c1.51,0,3,1.06,3.08,3.54v8.6c0,1.02,0.22,1.4,0.76,1.46c0.62,0.06,0.81,0.15,0.81,0.43c0,0.22-0.19,0.31-0.38,0.31
				c-0.11,0-0.49-0.12-2-0.12c-1.38,0-1.57,0.12-1.86,0.12c-0.3,0-0.41-0.09-0.41-0.34c0-0.19,0.19-0.34,0.51-0.4
				c0.73-0.12,0.95-0.31,0.95-1.12v-8.69c0-1.68-0.92-2.61-2.21-2.61c-1.38,0-2.81,1.24-2.81,2.79V429.17z"/>
			<path class="st1" d="M394.79,426.94c0,0.87-0.22,1.33-0.81,1.96c-0.59,0.62-1.16,1.06-1.78,1.06c-0.76,0-1.35-0.59-1.35-1.83
				c0-1.8,1.27-3.23,3.05-4.63c0.43-0.34,0.51-0.37,0.67-0.37s0.22,0.09,0.22,0.4V426.94z M396.41,418.62
				c0-1.68-0.49-2.14-2.11-2.14c-1.3,0-2.73,0.53-3.81,1.65c-1.21,1.27-1.54,2.27-1.54,3.01c0,0.5,0.13,0.68,0.57,0.68
				c0.92,0,1.43-0.84,1.62-1.61c0.41-1.71,1.05-2.98,2.51-2.98c0.78,0,1.13,0.5,1.13,2.14v1.77c0,1.06-0.49,1.21-2.89,3.23
				c-2.08,1.74-2.84,2.64-2.84,4.16c0,1.8,0.86,2.73,1.97,2.73c2.29,0,3.27-2.27,3.7-2.27c0.4,0,0.13,2.14,1.73,2.14
				c1.57,0,2.16-1.89,2.16-2.52c0-0.34-0.08-0.43-0.22-0.43c-0.41,0-0.22,1.4-1.24,1.4c-0.49,0-0.76-0.62-0.76-1.12V418.62z"/>
			<path class="st1" d="M400.38,411.6c0-0.47-0.13-0.65-0.78-0.78c-0.43-0.09-0.57-0.12-0.57-0.34c0-0.22,0.08-0.28,0.38-0.4
				c2.19-0.9,2.19-1.18,2.46-1.18c0.08,0,0.13,0.06,0.13,0.44v19.87c0,0.78,0.32,0.78,1.21,1.06c0.3,0.09,0.51,0.12,0.51,0.37
				c0,0.22-0.11,0.37-0.3,0.37c-0.22,0-0.54-0.12-2.21-0.12c-1.49,0-1.81,0.12-2.08,0.12c-0.13,0-0.32-0.09-0.32-0.37
				c0-0.19,0.22-0.34,0.43-0.37c0.97-0.16,1.13-0.47,1.13-1.3V411.6z"/>
			<path class="st1" d="M405.54,421.75c0-2.55,1.13-4.53,2.59-4.53c1.19,0,2.05,1.24,2.05,3.38c0,0.84-0.11,1.18-0.35,1.4
				c-0.24,0.22-1.3,0.43-3.1,0.43C405.59,422.43,405.54,422.31,405.54,421.75z M411.05,423.3c0.65,0,0.65-0.09,0.65-1.92
				c0-3.1-1.46-4.91-3.4-4.91c-2.32,0-4.59,2.48-4.59,7.7c0,4.22,1.73,7.08,4.7,7.08c2.13,0,3.35-1.8,3.35-3.76
				c0-0.31-0.08-0.37-0.19-0.37c-0.19,0-0.19,0.31-0.51,1.06c-0.46,1.06-1.21,1.77-2.38,1.77c-1.89,0-3.19-2.36-3.19-6.09
				c0-0.31,0.16-0.56,0.62-0.56H411.05z"/>
			<path class="st1" d="M275.03,456.36c0,1.49-1.16,2.11-2.16,2.11c-1.89,0-2.81-2.05-2.81-6.52c0-4.78,1.62-6.33,2.78-6.33
				c1.3,0,2.19,1.3,2.19,3.07V456.36z M275.03,445.62c0,0.09-0.03,0.16-0.11,0.16c-0.22,0-0.76-0.9-2.08-0.9
				c-2.81,0-4.56,3.66-4.56,7.54c0,4.32,1.3,7.23,4.1,7.23c1.92,0,2.35-1.55,2.62-1.55c0.11,0,0.19,0.19,0.19,0.34l0.11,0.75
				c0.05,0.34,0.19,0.46,0.43,0.46c0.14,0,0.27,0,1.35-0.56c0.94-0.5,1.11-0.53,1.11-1.61c0-0.5-0.05-0.65-0.24-0.65
				c-0.3,0-0.4,1.46-1.08,1.46c-0.13,0-0.22-0.22-0.22-1.18v-19.38c0-0.37-0.05-0.43-0.13-0.43c-0.27,0-0.27,0.28-2.46,1.18
				c-0.3,0.12-0.38,0.19-0.38,0.4c0,0.22,0.13,0.25,0.57,0.34c0.65,0.12,0.78,0.31,0.78,0.78V445.62z"/>
			<path class="st1" d="M280.4,448.13c0-0.71-0.19-0.93-1.13-1.15c-0.13-0.03-0.24-0.16-0.24-0.31c0-0.16,0.19-0.31,0.78-0.56
				c1.27-0.53,1.81-1.24,2-1.24c0.14,0,0.22,0.09,0.22,0.31v11.89c0,0.87,0,1.37,0.94,1.58c0.51,0.12,0.67,0.19,0.67,0.43
				c0,0.22-0.08,0.31-0.4,0.31c-0.35,0-0.65-0.12-2.05-0.12c-1.46,0-1.78,0.12-2.02,0.12c-0.19,0-0.32-0.12-0.32-0.34
				c0-0.19,0.11-0.34,0.46-0.4c0.97-0.19,1.11-0.34,1.11-1.43V448.13z M281.21,439.72c0.54,0,1,0.46,1,1.55c0,1.12-0.46,1.55-1,1.55
				c-0.51,0-1-0.44-1-1.55C280.21,440.18,280.7,439.72,281.21,439.72z"/>
			<path class="st1" d="M293.79,459.78c-1.51,0-2.59-0.37-3.16-0.78c-0.38-0.28-0.49-0.59-0.49-3.38c0-2.17,0.08-2.24,0.38-2.24
				c0.32,0,0.32,0.15,0.38,0.46c0.68,3.82,1.86,5.19,3.46,5.19c1.78,0,3.02-1.83,3.02-4.16c0-5.46-7.13-5.12-7.13-10.9
				c0-2.55,2.05-4.63,4.59-4.63c1.13,0,2.62,0.53,2.97,0.93c0.16,0.19,0.16,0.37,0.16,2.95c0,1.62,0,1.68-0.27,1.68
				c-0.38,0-0.3-0.5-0.46-1.15c-0.68-2.73-1.65-3.66-2.84-3.66c-1.35,0-2.54,1.37-2.54,2.98c0,5.5,7.13,4.66,7.13,10.87
				C299,457.48,296.84,459.78,293.79,459.78z"/>
			<path class="st1" d="M302.67,457.11c0,1.06,0.32,1.24,0.81,1.24c1.03,0,1.21-1.8,1.65-1.8c0.16,0,0.24,0.06,0.24,0.25
				c0,0.25-0.27,1.24-0.62,1.92c-0.38,0.75-0.97,0.93-1.7,0.93c-1.22,0-2-0.71-2-2.67v-10.43c0-0.5-0.46-0.5-0.86-0.5
				c-0.24,0-0.43,0-0.43-0.37c0-0.37,0.84-0.9,2.21-3.91c0.27-0.59,0.27-0.75,0.46-0.75c0.16,0,0.24,0.09,0.24,0.78v2.76
				c0,0.5,0.14,0.68,0.54,0.68h1.08c0.49,0,0.68,0.09,0.68,0.46c0,0.4-0.16,0.59-0.73,0.59h-1.21c-0.27,0-0.35,0.09-0.35,0.56
				V457.11z"/>
			<path class="st1" d="M312.09,455.34c0,0.87-0.22,1.33-0.81,1.96c-0.59,0.62-1.16,1.06-1.78,1.06c-0.76,0-1.35-0.59-1.35-1.83
				c0-1.8,1.27-3.23,3.05-4.63c0.43-0.34,0.51-0.37,0.67-0.37c0.16,0,0.22,0.09,0.22,0.4V455.34z M313.71,447.02
				c0-1.68-0.49-2.14-2.11-2.14c-1.3,0-2.73,0.53-3.81,1.65c-1.21,1.27-1.54,2.27-1.54,3.01c0,0.5,0.14,0.68,0.57,0.68
				c0.92,0,1.43-0.84,1.62-1.61c0.4-1.71,1.05-2.98,2.51-2.98c0.78,0,1.13,0.5,1.13,2.14v1.77c0,1.06-0.49,1.21-2.89,3.23
				c-2.08,1.74-2.83,2.64-2.83,4.16c0,1.8,0.86,2.73,1.97,2.73c2.29,0,3.27-2.27,3.7-2.27c0.41,0,0.13,2.14,1.73,2.14
				c1.57,0,2.16-1.89,2.16-2.52c0-0.34-0.08-0.44-0.22-0.44c-0.41,0-0.22,1.4-1.24,1.4c-0.49,0-0.76-0.62-0.76-1.12V447.02z"/>
			<path class="st1" d="M318.9,457.11c0,1.06,0.32,1.24,0.81,1.24c1.03,0,1.21-1.8,1.65-1.8c0.16,0,0.24,0.06,0.24,0.25
				c0,0.25-0.27,1.24-0.62,1.92c-0.38,0.75-0.97,0.93-1.7,0.93c-1.21,0-2-0.71-2-2.67v-10.43c0-0.5-0.46-0.5-0.86-0.5
				c-0.24,0-0.43,0-0.43-0.37c0-0.37,0.84-0.9,2.21-3.91c0.27-0.59,0.27-0.75,0.46-0.75c0.16,0,0.24,0.09,0.24,0.78v2.76
				c0,0.5,0.14,0.68,0.54,0.68h1.08c0.49,0,0.67,0.09,0.67,0.46c0,0.4-0.16,0.59-0.73,0.59h-1.21c-0.27,0-0.35,0.09-0.35,0.56
				V457.11z"/>
			<path class="st1" d="M323.54,448.13c0-0.71-0.19-0.93-1.13-1.15c-0.13-0.03-0.24-0.16-0.24-0.31c0-0.16,0.19-0.31,0.78-0.56
				c1.27-0.53,1.81-1.24,2-1.24c0.13,0,0.22,0.09,0.22,0.31v11.89c0,0.87,0,1.37,0.95,1.58c0.51,0.12,0.67,0.19,0.67,0.43
				c0,0.22-0.08,0.31-0.41,0.31c-0.35,0-0.65-0.12-2.05-0.12c-1.46,0-1.78,0.12-2.02,0.12c-0.19,0-0.32-0.12-0.32-0.34
				c0-0.19,0.11-0.34,0.46-0.4c0.97-0.19,1.11-0.34,1.11-1.43V448.13z M324.35,439.72c0.54,0,1,0.46,1,1.55c0,1.12-0.46,1.55-1,1.55
				c-0.51,0-1-0.44-1-1.55C323.35,440.18,323.84,439.72,324.35,439.72z"/>
			<path class="st1" d="M331.34,444.87c0.86,0,1.54,0.22,2.03,0.5c0.13,0.09,0.16,0.56,0.16,1.74c0,1.09,0,1.61-0.27,1.61
				c-0.27,0-0.27-0.46-0.67-1.64c-0.3-0.84-0.7-1.46-1.54-1.46c-1.16,0-2.03,0.93-2.03,2.14c0,3.01,5.21,3.1,5.21,7.45
				c0,2.79-1.59,4.44-4.02,4.44c-1.13,0-1.67-0.22-2.13-0.37c-0.27-0.09-0.38-0.37-0.38-2.51c0-1.58,0.08-1.83,0.3-1.83
				c0.27,0,0.22,0.31,0.65,1.8c0.38,1.27,1,2.17,2,2.17c1.27,0,2.08-1.03,2.08-2.48c0-3.97-5.05-3.17-5.05-7.82
				C327.67,445.9,329.62,444.87,331.34,444.87z"/>
			<path class="st1" d="M337.99,457.11c0,1.06,0.32,1.24,0.81,1.24c1.03,0,1.21-1.8,1.65-1.8c0.16,0,0.24,0.06,0.24,0.25
				c0,0.25-0.27,1.24-0.62,1.92c-0.38,0.75-0.97,0.93-1.7,0.93c-1.21,0-2-0.71-2-2.67v-10.43c0-0.5-0.46-0.5-0.86-0.5
				c-0.24,0-0.43,0-0.43-0.37c0-0.37,0.84-0.9,2.21-3.91c0.27-0.59,0.27-0.75,0.46-0.75c0.16,0,0.24,0.09,0.24,0.78v2.76
				c0,0.5,0.13,0.68,0.54,0.68h1.08c0.49,0,0.68,0.09,0.68,0.46c0,0.4-0.16,0.59-0.73,0.59h-1.21c-0.27,0-0.35,0.09-0.35,0.56
				V457.11z"/>
			<path class="st1" d="M342.63,448.13c0-0.71-0.19-0.93-1.13-1.15c-0.13-0.03-0.24-0.16-0.24-0.31c0-0.16,0.19-0.31,0.78-0.56
				c1.27-0.53,1.81-1.24,2-1.24c0.14,0,0.22,0.09,0.22,0.31v11.89c0,0.87,0,1.37,0.94,1.58c0.51,0.12,0.67,0.19,0.67,0.43
				c0,0.22-0.08,0.31-0.4,0.31c-0.35,0-0.65-0.12-2.05-0.12c-1.46,0-1.78,0.12-2.02,0.12c-0.19,0-0.32-0.12-0.32-0.34
				c0-0.19,0.11-0.34,0.46-0.4c0.97-0.19,1.11-0.34,1.11-1.43V448.13z M343.44,439.72c0.54,0,1,0.46,1,1.55c0,1.12-0.46,1.55-1,1.55
				c-0.51,0-1-0.44-1-1.55C342.44,440.18,342.93,439.72,343.44,439.72z"/>
			<path class="st1" d="M351.27,444.87c0.97,0,1.54,0.16,1.89,0.37c0.67,0.4,0.7,0.46,0.7,1.37c0,2.55-0.05,2.83-0.67,2.83
				c-0.38,0-0.41-0.56-0.95-1.96c-0.43-1.12-0.65-1.55-1.46-1.55c-1.67,0-2.97,2.36-2.97,5.68c0,4.56,1.4,6.55,3.1,6.55
				c1,0,1.65-0.5,2.16-1.43c0.54-0.96,0.49-1.62,0.84-1.62c0.22,0,0.27,0.12,0.27,0.44c0,2.17-1.35,4.1-3.75,4.1
				c-2.73,0-4.4-2.76-4.4-6.86C346.03,448.23,348.22,444.87,351.27,444.87z"/>
			<path class="st1" d="M361.18,455.34c0,0.87-0.22,1.33-0.81,1.96c-0.59,0.62-1.16,1.06-1.78,1.06c-0.76,0-1.35-0.59-1.35-1.83
				c0-1.8,1.27-3.23,3.05-4.63c0.43-0.34,0.51-0.37,0.67-0.37s0.22,0.09,0.22,0.4V455.34z M362.8,447.02c0-1.68-0.49-2.14-2.11-2.14
				c-1.3,0-2.73,0.53-3.81,1.65c-1.21,1.27-1.54,2.27-1.54,3.01c0,0.5,0.13,0.68,0.57,0.68c0.92,0,1.43-0.84,1.62-1.61
				c0.4-1.71,1.05-2.98,2.51-2.98c0.78,0,1.13,0.5,1.13,2.14v1.77c0,1.06-0.49,1.21-2.89,3.23c-2.08,1.74-2.83,2.64-2.83,4.16
				c0,1.8,0.86,2.73,1.97,2.73c2.29,0,3.27-2.27,3.7-2.27c0.41,0,0.13,2.14,1.73,2.14c1.57,0,2.16-1.89,2.16-2.52
				c0-0.34-0.08-0.44-0.22-0.44c-0.41,0-0.22,1.4-1.24,1.4c-0.49,0-0.76-0.62-0.76-1.12V447.02z"/>
			<path class="st1" d="M269.3,325.33c0-3.54-0.8-4.45-3.65-5.02c-4.22-0.8-5.25-0.46-5.25-1.94c0-0.91,0.8-1.25,2.05-1.25
				c2.62,0,5.02,0.46,13.35,0.46c3.88,0,8.9-0.46,11.41-0.46c1.25,0,1.83,0.11,1.83,1.03c0,1.71-0.91,1.37-5.93,2.17
				c-1.48,0.23-2.62,1.71-2.62,4.34v55.95c0,3.65,0.46,3.77,5.36,5.02c2.62,0.68,3.54,0.46,3.54,1.83c0,0.68-0.34,1.37-2.17,1.37
				c-1.94,0-4.91-0.46-11.75-0.46c-9.47,0-11.41,0.46-13.46,0.46c-1.14,0-1.6-0.46-1.6-1.48c0-1.03,1.14-1.48,3.08-1.71
				c4.91-0.57,5.82-1.6,5.82-6.39V325.33z"/>
			<path class="st1" d="M290.06,374.55c0-1.48,0.57-2.17,1.71-2.17c1.03,0,1.71,1.03,3.19,5.25c2.05,6.05,5.13,9.81,10.61,9.81
				c5.25,0,8.44-4.34,8.44-9.93c0-13.35-24.19-12.78-24.19-27.27c0-10.04,9.7-15.29,17.57-15.29c3.99,0,8.67,0.8,10.5,1.6
				c1.37,0.57,1.48,1.25,1.48,8.1c0,3.65-0.34,4.34-2.05,4.34c-3.19,0-1.48-11.3-11.75-11.3c-4.79,0-7.76,3.19-7.76,7.64
				c0,11.98,24.19,10.61,24.19,27.84c0,9.58-8.21,17-20.08,17c-4.79,0-11.87-1.83-11.87-3.88V374.55z"/>
			<path class="st1" d="M336.5,336.79h7.3c1.14,0,1.37,0.46,1.37,1.94c0,1.48-0.23,1.94-1.37,1.94h-6.73
				c-0.46,0-0.57,0.46-0.57,0.68v35.03c0,5.02,1.14,6.96,3.42,6.96c3.2,0,4.22-5.48,5.82-5.48c0.68,0,1.03,0.46,1.03,1.48
				c0,1.71-3.54,10.84-10.95,10.84c-6.73,0-8.67-6.16-8.67-13.69v-34c0-1.37-0.34-1.83-1.25-1.83h-3.08c-1.03,0-1.14-0.34-1.14-1.03
				c0-1.37,2.05-1.83,6.16-6.28c5.82-6.28,5.48-11.18,7.53-11.18c0.57,0,1.14,0.68,1.14,1.71V336.79z"/>
			<path class="st1" d="M372.32,368.5c0,10.27-2.97,14.38-8.33,14.38c-3.2,0-5.13-2.74-5.13-6.28c0.34-7.99,10.84-17,12.32-17
				c0.8,0,1.14,0.23,1.14,1.6V368.5z M381.68,342.72c0-6.16-2.4-7.76-11.3-7.76c-13.69,0-22.82,12.32-22.82,16.77
				c0,2.28,1.37,3.77,4.11,3.77c4.22,0,6.5-3.08,7.07-8.1c0.68-6.05,4.45-9.7,8.79-9.7c3.08,0,4.79,2.05,4.79,5.02v9.81
				c0,7.19-23.96,15.17-23.96,27.73c0,6.73,3.65,9.93,9.58,9.93c8.9,0,12.32-8.9,13.69-8.9c1.37,0,2.17,8.44,9.47,8.44
				c4.91,0,9.93-5.36,9.93-9.13c0-0.91-0.34-1.37-1.03-1.37c-1.83,0-2.17,3.65-4.56,3.65c-1.71,0-3.76-1.37-3.76-5.93V342.72z"/>
			<path class="st1" d="M403.01,336.79h7.3c1.14,0,1.37,0.46,1.37,1.94c0,1.48-0.23,1.94-1.37,1.94h-6.73
				c-0.46,0-0.57,0.46-0.57,0.68v35.03c0,5.02,1.14,6.96,3.42,6.96c3.19,0,4.22-5.48,5.82-5.48c0.68,0,1.03,0.46,1.03,1.48
				c0,1.71-3.54,10.84-10.95,10.84c-6.73,0-8.67-6.16-8.67-13.69v-34c0-1.37-0.34-1.83-1.26-1.83h-3.08c-1.03,0-1.14-0.34-1.14-1.03
				c0-1.37,2.05-1.83,6.16-6.28c5.82-6.28,5.48-11.18,7.53-11.18c0.57,0,1.14,0.68,1.14,1.71V336.79z"/>
		</g>
	</g>
	<g>
		<path class="st0" d="M194.18,388.37l0.11-0.21c0.25-0.45,0.3-1.23,0.14-1.62c-0.29-0.7-1.07-1.07-1.6-1.21
			c-1.14-0.31-2-0.37-3.16-0.55c-0.86-0.13-1.91-0.26-2.69-0.67c-0.96-0.5-1.5-0.82-1.96-1.7c-0.69-1.33-0.69-2.5-0.79-3.95
			l0.01-67.33c0.13-4.1,3.29-6.07,3.89-6.49c2.01-1.39,6.05-1.76,10.31-0.77c4.05,0.94,39.14,12.48,42.49,13.58l0,0.03v70.87
			L194.18,388.37z"/>
		<path class="st2" d="M160.12,388.37l-0.11-0.21c-0.25-0.45-0.3-1.23-0.14-1.62c0.29-0.7,1.07-1.07,1.6-1.21
			c1.14-0.31,2-0.37,3.16-0.55c0.86-0.13,1.91-0.26,2.69-0.67c0.96-0.5,1.5-0.82,1.96-1.7c0.69-1.33,0.69-2.5,0.79-3.95l-0.01-67.33
			c-0.13-4.1-3.29-6.07-3.89-6.49c-2.01-1.39-6.05-1.76-10.31-0.77c-4.05,0.94-39.14,12.48-42.49,13.58l0,0.03v70.87L160.12,388.37z
			"/>
	</g>
</g>
</svg>
